Nunito-Regular.ufo
<glyph name="dollar" format="1">
  <advance width="1246"/>
  <unicode hex="0024"/>
  <outline>
    <contour>
      <point x="574" y="0" type="line" smooth="yes"/>
      <point x="574" y="-42"/>
      <point x="604" y="-62"/>
      <point x="635" y="-62" type="curve" smooth="yes"/>
      <point x="667" y="-62"/>
      <point x="699" y="-41"/>
      <point x="699" y="0" type="curve" smooth="yes"/>
      <point x="699" y="205.288" type="line"/>
      <point x="887.49" y="223.729"/>
      <point x="1025.4" y="320.087"/>
      <point x="1025.4" y="507.298" type="curve" smooth="yes"/>
      <point x="1025.4" y="645.397"/>
      <point x="954.286" y="740.233"/>
      <point x="745" y="791" type="curve"/>
      <point x="572" y="834" type="line" smooth="yes"/>
      <point x="430" y="869"/>
      <point x="397" y="888"/>
      <point x="397" y="970" type="curve" smooth="yes"/>
      <point x="397" y="1072.74"/>
      <point x="498.487" y="1113.02"/>
      <point x="633.02" y="1113.02" type="curve" smooth="yes"/>
      <point x="752.483" y="1113.02"/>
      <point x="849.403" y="1068.22"/>
      <point x="896" y="1051" type="curve" smooth="yes"/>
      <point x="907.125" y="1047.04"/>
      <point x="917.367" y="1045.26"/>
      <point x="926.622" y="1045.26" type="curve" smooth="yes"/>
      <point x="962.586" y="1045.26"/>
      <point x="983.637" y="1072.04"/>
      <point x="983.637" y="1101.05" type="curve" smooth="yes"/>
      <point x="983.637" y="1122.95"/>
      <point x="971.638" y="1146.12"/>
      <point x="945" y="1160" type="curve" smooth="yes"/>
      <point x="897.441" y="1185.48"/>
      <point x="805.887" y="1221.77"/>
      <point x="693" y="1232.75" type="curve"/>
      <point x="693" y="1438" type="line" smooth="yes"/>
      <point x="693" y="1479"/>
      <point x="661" y="1500"/>
      <point x="629" y="1500" type="curve" smooth="yes"/>
      <point x="598" y="1500"/>
      <point x="568" y="1480"/>
      <point x="568" y="1438" type="curve" smooth="yes"/>
      <point x="568" y="1234.2" type="line"/>
      <point x="383.508" y="1221.56"/>
      <point x="228.985" y="1142.66"/>
      <point x="228.985" y="963.121" type="curve" smooth="yes"/>
      <point x="228.985" y="781.431"/>
      <point x="345.52" y="740.122"/>
      <point x="531" y="693" type="curve" smooth="yes"/>
      <point x="708" y="649" type="line" smooth="yes"/>
      <point x="824.924" y="620.282"/>
      <point x="872.24" y="575.228"/>
      <point x="872.24" y="495.254" type="curve" smooth="yes"/>
      <point x="872.24" y="378.934"/>
      <point x="767.142" y="324"/>
      <point x="627" y="324" type="curve" smooth="yes"/>
      <point x="506" y="325"/>
      <point x="408" y="366"/>
      <point x="337" y="410" type="curve" smooth="yes"/>
      <point x="320.648" y="419.619"/>
      <point x="305.222" y="423.723"/>
      <point x="291.461" y="423.723" type="curve" smooth="yes"/>
      <point x="255.501" y="423.723"/>
      <point x="230.915" y="395.695"/>
      <point x="230.915" y="364.792" type="curve" smooth="yes"/>
      <point x="230.915" y="346.048"/>
      <point x="239.96" y="326.246"/>
      <point x="261" y="311" type="curve" smooth="yes"/>
      <point x="323.87" y="264.954"/>
      <point x="441.627" y="215.772"/>
      <point x="574" y="204.418" type="curve"/>
    </contour>
  </outline>
</glyph>
<glyph name="three" format="1">
  <advance width="1175"/>
  <unicode hex="0033"/>
  <outline>
    <contour>
      <point x="558" y="-22" type="curve" smooth="yes"/>
      <point x="811" y="-22"/>
      <point x="1047" y="98"/>
      <point x="1047" y="378" type="curve" smooth="yes"/>
      <point x="1047" y="566"/>
      <point x="941" y="704"/>
      <point x="771" y="746" type="curve"/>
      <point x="908" y="791"/>
      <point x="1013" y="895"/>
      <point x="1013" y="1063" type="curve" smooth="yes"/>
      <point x="1013" y="1325"/>
      <point x="803" y="1450"/>
      <point x="548" y="1450" type="curve" smooth="yes"/>
      <point x="397" y="1450"/>
      <point x="237" y="1395"/>
      <point x="186" y="1364" type="curve" smooth="yes"/>
      <point x="163" y="1351"/>
      <point x="153" y="1329"/>
      <point x="153" y="1306" type="curve" smooth="yes"/>
      <point x="153" y="1262"/>
      <point x="188" y="1215"/>
      <point x="229" y="1215" type="curve" smooth="yes"/>
      <point x="237" y="1215"/>
      <point x="245" y="1216"/>
      <point x="253" y="1220" type="curve" smooth="yes"/>
      <point x="305" y="1246"/>
      <point x="409" y="1288"/>
      <point x="545" y="1288" type="curve" smooth="yes"/>
      <point x="684" y="1288"/>
      <point x="811" y="1212"/>
      <point x="811" y="1059" type="curve" smooth="yes"/>
      <point x="811" y="892"/>
      <point x="682" y="811"/>
      <point x="502" y="811" type="curve" smooth="yes"/>
      <point x="437" y="811" type="line" smooth="yes"/>
      <point x="389" y="811"/>
      <point x="366" y="774"/>
      <point x="366" y="736" type="curve" smooth="yes"/>
      <point x="366" y="699"/>
      <point x="389" y="664"/>
      <point x="437" y="664" type="curve" smooth="yes"/>
      <point x="510" y="664" type="line" smooth="yes"/>
      <point x="701" y="664"/>
      <point x="847" y="555"/>
      <point x="847" y="377" type="curve" smooth="yes"/>
      <point x="847" y="222"/>
      <point x="720" y="140"/>
      <point x="549" y="140" type="curve" smooth="yes"/>
      <point x="432" y="140"/>
      <point x="337" y="177"/>
      <point x="274" y="206" type="curve" smooth="yes"/>
      <point x="265" y="209"/>
      <point x="257" y="211"/>
      <point x="249" y="211" type="curve" smooth="yes"/>
      <point x="207" y="211"/>
      <point x="172" y="171"/>
      <point x="172" y="128" type="curve" smooth="yes"/>
      <point x="172" y="100"/>
      <point x="187" y="72"/>
      <point x="224" y="53" type="curve" smooth="yes"/>
      <point x="309" y="8"/>
      <point x="433" y="-22"/>
    </contour>
  </outline>
</glyph>
<glyph name="colon" format="1">
  <advance width="593"/>
  <unicode hex="003A"/>
  <outline>
    <contour>
      <point x="296" y="794" type="curve" smooth="yes"/>
      <point x="369" y="794"/>
      <point x="412" y="844"/>
      <point x="412" y="900" type="curve" smooth="yes"/>
      <point x="412" y="957"/>
      <point x="367" y="1007"/>
      <point x="296" y="1007" type="curve" smooth="yes"/>
      <point x="223" y="1007"/>
      <point x="180" y="955"/>
      <point x="180" y="900" type="curve" smooth="yes"/>
      <point x="180" y="842"/>
      <point x="224" y="794"/>
    </contour>
    <contour>
      <point x="296" y="-2" type="curve" smooth="yes"/>
      <point x="368" y="-2"/>
      <point x="412" y="50"/>
      <point x="412" y="106" type="curve" smooth="yes"/>
      <point x="412" y="161"/>
      <point x="367" y="212"/>
      <point x="296" y="212" type="curve" smooth="yes"/>
      <point x="223" y="212"/>
      <point x="180" y="159"/>
      <point x="180" y="106" type="curve" smooth="yes"/>
      <point x="180" y="50"/>
      <point x="224" y="-2"/>
    </contour>
  </outline>
</glyph>
<glyph name="R" format="1">
  <advance width="1365"/>
  <unicode hex="0052"/>
  <outline>
    <contour>
      <point x="717" y="0" type="move" name="bot"/>
    </contour>
    <contour>
      <point x="682" y="1438" type="move" name="top"/>
    </contour>
    <contour>
      <point x="379" y="809" type="line"/>
      <point x="379" y="1269" type="line"/>
      <point x="697" y="1269" type="line" smooth="yes"/>
      <point x="839" y="1269"/>
      <point x="1020" y="1258"/>
      <point x="1020" y="1051" type="curve" smooth="yes"/>
      <point x="1020" y="841"/>
      <point x="846" y="809"/>
      <point x="670" y="809" type="curve" smooth="yes"/>
    </contour>
    <contour>
      <point x="277" y="1" type="curve" smooth="yes"/>
      <point x="327" y="1"/>
      <point x="379" y="32"/>
      <point x="379" y="97" type="curve" smooth="yes"/>
      <point x="379" y="654" type="line"/>
      <point x="713" y="654" type="line" smooth="yes"/>
      <point x="921" y="654"/>
      <point x="962" y="599"/>
      <point x="988" y="370" type="curve" smooth="yes"/>
      <point x="1019" y="91" type="line" smooth="yes"/>
      <point x="1025" y="30"/>
      <point x="1080" y="1"/>
      <point x="1128" y="1" type="curve" smooth="yes"/>
      <point x="1177" y="1"/>
      <point x="1223" y="35"/>
      <point x="1223" y="91" type="curve" smooth="yes"/>
      <point x="1223" y="95"/>
      <point x="1223" y="100"/>
      <point x="1222" y="105" type="curve" smooth="yes"/>
      <point x="1186" y="419" type="line" smooth="yes"/>
      <point x="1166" y="591"/>
      <point x="1087" y="704"/>
      <point x="920" y="740" type="curve"/>
      <point x="920" y="744" type="line"/>
      <point x="1127" y="783"/>
      <point x="1222" y="911"/>
      <point x="1222" y="1070" type="curve" smooth="yes"/>
      <point x="1222" y="1368"/>
      <point x="964" y="1429"/>
      <point x="712" y="1429" type="curve" smooth="yes"/>
      <point x="278" y="1429" type="line" smooth="yes"/>
      <point x="222" y="1429"/>
      <point x="177" y="1385"/>
      <point x="177" y="1331" type="curve" smooth="yes"/>
      <point x="177" y="97" type="line" smooth="yes"/>
      <point x="177" y="32"/>
      <point x="227" y="1"/>
    </contour>
  </outline>
</glyph>
<glyph name="S" format="1">
  <advance width="1286"/>
  <unicode hex="0053"/>
  <outline>
    <contour>
      <point x="642" y="6" type="move" name="bot"/>
    </contour>
    <contour>
      <point x="652" y="1438" type="move" name="top"/>
    </contour>
    <contour>
      <point x="636" y="-22" type="curve" smooth="yes"/>
      <point x="963" y="-22"/>
      <point x="1173" y="127"/>
      <point x="1173" y="392" type="curve" smooth="yes"/>
      <point x="1173" y="614"/>
      <point x="1032" y="706"/>
      <point x="817" y="776" type="curve" smooth="yes"/>
      <point x="529" y="869" type="line" smooth="yes"/>
      <point x="399" y="912"/>
      <point x="334" y="966"/>
      <point x="334" y="1074" type="curve" smooth="yes"/>
      <point x="334" y="1216"/>
      <point x="471" y="1288"/>
      <point x="664" y="1288" type="curve" smooth="yes"/>
      <point x="823" y="1288"/>
      <point x="957" y="1219"/>
      <point x="1015" y="1181" type="curve" smooth="yes"/>
      <point x="1030" y="1171"/>
      <point x="1045" y="1167"/>
      <point x="1059" y="1167" type="curve" smooth="yes"/>
      <point x="1102" y="1167"/>
      <point x="1137" y="1208"/>
      <point x="1137" y="1248" type="curve" smooth="yes"/>
      <point x="1137" y="1266"/>
      <point x="1130" y="1284"/>
      <point x="1114" y="1298" type="curve" smooth="yes"/>
      <point x="1032" y="1371"/>
      <point x="849" y="1450"/>
      <point x="648" y="1450" type="curve" smooth="yes"/>
      <point x="362" y="1450"/>
      <point x="140" y="1306"/>
      <point x="140" y="1068" type="curve" smooth="yes"/>
      <point x="140" y="867"/>
      <point x="256" y="773"/>
      <point x="455" y="706" type="curve" smooth="yes"/>
      <point x="742" y="610" type="line" smooth="yes"/>
      <point x="900" y="557"/>
      <point x="976" y="509"/>
      <point x="976" y="366" type="curve" smooth="yes"/>
      <point x="976" y="213"/>
      <point x="829" y="140"/>
      <point x="645" y="140" type="curve" smooth="yes"/>
      <point x="468" y="140"/>
      <point x="332" y="209"/>
      <point x="251" y="272" type="curve" smooth="yes"/>
      <point x="243" y="278"/>
      <point x="235" y="280"/>
      <point x="226" y="280" type="curve" smooth="yes"/>
      <point x="184" y="280"/>
      <point x="134" y="222"/>
      <point x="134" y="180" type="curve" smooth="yes"/>
      <point x="134" y="168"/>
      <point x="137" y="158"/>
      <point x="146" y="150" type="curve" smooth="yes"/>
      <point x="245" y="58"/>
      <point x="403" y="-22"/>
    </contour>
  </outline>
</glyph>
<glyph name="U" format="1">
  <advance width="1496"/>
  <unicode hex="0055"/>
  <outline>
    <contour>
      <point x="869" y="9" type="move" name="ogonek"/>
    </contour>
    <contour>
      <point x="762" y="1438" type="move" name="top"/>
    </contour>
    <contour>
      <point x="748" y="-22" type="curve" smooth="yes"/>
      <point x="1046" y="-22"/>
      <point x="1314" y="146"/>
      <point x="1314" y="497" type="curve" smooth="yes"/>
      <point x="1314" y="1334" type="line" smooth="yes"/>
      <point x="1314" y="1399"/>
      <point x="1264" y="1432"/>
      <point x="1214" y="1432" type="curve" smooth="yes"/>
      <point x="1162" y="1432"/>
      <point x="1112" y="1399"/>
      <point x="1112" y="1334" type="curve" smooth="yes"/>
      <point x="1112" y="502" type="line" smooth="yes"/>
      <point x="1112" y="253"/>
      <point x="930" y="140"/>
      <point x="748" y="140" type="curve" smooth="yes"/>
      <point x="567" y="140"/>
      <point x="386" y="253"/>
      <point x="386" y="502" type="curve" smooth="yes"/>
      <point x="386" y="1334" type="line" smooth="yes"/>
      <point x="386" y="1399"/>
      <point x="336" y="1432"/>
      <point x="285" y="1432" type="curve" smooth="yes"/>
      <point x="233" y="1432"/>
      <point x="183" y="1399"/>
      <point x="183" y="1334" type="curve" smooth="yes"/>
      <point x="183" y="497" type="line" smooth="yes"/>
      <point x="183" y="146"/>
      <point x="450" y="-22"/>
    </contour>
  </outline>
</glyph>
<glyph name="W" format="1">
  <advance width="2110"/>
  <unicode hex="0057"/>
  <outline>
    <contour>
      <point x="1050" y="1438" type="move" name="top"/>
    </contour>
    <contour>
      <point x="1711" y="110" type="curve" smooth="yes"/>
      <point x="2038" y="1311" type="line" smooth="yes"/>
      <point x="2041" y="1322"/>
      <point x="2042" y="1332"/>
      <point x="2042" y="1341" type="curve" smooth="yes"/>
      <point x="2042" y="1399"/>
      <point x="1992" y="1432"/>
      <point x="1943" y="1432" type="curve" smooth="yes"/>
      <point x="1903" y="1432"/>
      <point x="1862" y="1410"/>
      <point x="1850" y="1363" type="curve" smooth="yes"/>
      <point x="1551" y="196" type="line"/>
      <point x="1192" y="1306" type="line" smooth="yes"/>
      <point x="1156" y="1413"/>
      <point x="1113" y="1430"/>
      <point x="1051" y="1430" type="curve" smooth="yes"/>
      <point x="990" y="1430"/>
      <point x="944" y="1407"/>
      <point x="911" y="1306" type="curve" smooth="yes"/>
      <point x="552" y="196" type="line"/>
      <point x="253" y="1363" type="line" smooth="yes"/>
      <point x="241" y="1410"/>
      <point x="200" y="1432"/>
      <point x="160" y="1432" type="curve" smooth="yes"/>
      <point x="111" y="1432"/>
      <point x="61" y="1399"/>
      <point x="61" y="1341" type="curve" smooth="yes"/>
      <point x="61" y="1332"/>
      <point x="62" y="1322"/>
      <point x="65" y="1311" type="curve" smooth="yes"/>
      <point x="392" y="110" type="line" smooth="yes"/>
      <point x="413" y="33"/>
      <point x="476" y="-4"/>
      <point x="539" y="-4" type="curve" smooth="yes"/>
      <point x="603" y="-4"/>
      <point x="668" y="34"/>
      <point x="693" y="108" type="curve" smooth="yes"/>
      <point x="1051" y="1200" type="line"/>
      <point x="1410" y="108" type="line" smooth="yes"/>
      <point x="1435" y="33"/>
      <point x="1499" y="-4"/>
      <point x="1562" y="-4" type="curve" smooth="yes"/>
      <point x="1627" y="-4"/>
      <point x="1691" y="35"/>
    </contour>
  </outline>
</glyph>
<glyph name="asciicircum" format="1">
  <advance width="1333"/>
  <unicode hex="005E"/>
  <outline>
    <contour>
      <point x="258" y="498" type="curve" smooth="yes"/>
      <point x="286" y="498"/>
      <point x="312" y="514"/>
      <point x="327" y="549" type="curve" smooth="yes"/>
      <point x="667" y="1232" type="line"/>
      <point x="1005" y="549" type="line" smooth="yes"/>
      <point x="1021" y="516"/>
      <point x="1046" y="499"/>
      <point x="1075" y="499" type="curve" smooth="yes"/>
      <point x="1114" y="499"/>
      <point x="1150" y="528"/>
      <point x="1150" y="568" type="curve" smooth="yes"/>
      <point x="1150" y="578"/>
      <point x="1146" y="591"/>
      <point x="1140" y="604" type="curve" smooth="yes"/>
      <point x="762" y="1342" type="line" smooth="yes"/>
      <point x="740" y="1385"/>
      <point x="707" y="1408"/>
      <point x="667" y="1408" type="curve" smooth="yes"/>
      <point x="627" y="1408"/>
      <point x="594" y="1382"/>
      <point x="572" y="1342" type="curve" smooth="yes"/>
      <point x="193" y="604" type="line" smooth="yes"/>
      <point x="187" y="591"/>
      <point x="183" y="578"/>
      <point x="183" y="567" type="curve" smooth="yes"/>
      <point x="183" y="525"/>
      <point x="219" y="498"/>
    </contour>
  </outline>
</glyph>
<glyph name="g" format="1">
  <advance width="1178"/>
  <unicode hex="0067"/>
  <outline>
    <contour>
      <point x="553" y="994" type="move" name="top"/>
    </contour>
    <contour>
      <point x="569" y="120" type="curve" smooth="yes"/>
      <point x="404" y="120"/>
      <point x="265" y="238"/>
      <point x="265" y="498" type="curve" smooth="yes"/>
      <point x="265" y="711"/>
      <point x="357" y="890"/>
      <point x="569" y="890" type="curve" smooth="yes"/>
      <point x="790" y="890"/>
      <point x="861" y="699"/>
      <point x="861" y="502" type="curve" smooth="yes"/>
      <point x="861" y="253"/>
      <point x="733" y="120"/>
    </contour>
    <contour>
      <point x="561" y="-423" type="curve" smooth="yes"/>
      <point x="846" y="-423"/>
      <point x="1037" y="-287"/>
      <point x="1037" y="6" type="curve" smooth="yes"/>
      <point x="1037" y="909" type="line" smooth="yes"/>
      <point x="1037" y="965"/>
      <point x="996" y="994"/>
      <point x="952" y="994" type="curve" smooth="yes"/>
      <point x="912" y="994"/>
      <point x="872" y="969"/>
      <point x="868" y="921" type="curve"/>
      <point x="868" y="820" type="line"/>
      <point x="809" y="935"/>
      <point x="712" y="1013"/>
      <point x="536" y="1013" type="curve" smooth="yes"/>
      <point x="245" y="1013"/>
      <point x="84" y="780"/>
      <point x="84" y="492" type="curve" smooth="yes"/>
      <point x="84" y="219"/>
      <point x="246" y="0"/>
      <point x="541" y="0" type="curve" smooth="yes"/>
      <point x="699" y="0"/>
      <point x="810" y="82"/>
      <point x="862" y="198" type="curve"/>
      <point x="862" y="0" type="line" smooth="yes"/>
      <point x="862" y="-190"/>
      <point x="758" y="-297"/>
      <point x="549" y="-297" type="curve" smooth="yes"/>
      <point x="419" y="-297"/>
      <point x="328" y="-258"/>
      <point x="265" y="-235" type="curve" smooth="yes"/>
      <point x="257" y="-232"/>
      <point x="249" y="-231"/>
      <point x="242" y="-231" type="curve" smooth="yes"/>
      <point x="208" y="-231"/>
      <point x="182" y="-261"/>
      <point x="182" y="-293" type="curve" smooth="yes"/>
      <point x="182" y="-314"/>
      <point x="193" y="-336"/>
      <point x="220" y="-351" type="curve" smooth="yes"/>
      <point x="282" y="-384"/>
      <point x="402" y="-423"/>
    </contour>
  </outline>
</glyph>
<glyph name="h" format="1">
  <advance width="1158"/>
  <unicode hex="0068"/>
  <outline>
    <contour>
      <point x="241" y="0" type="curve" smooth="yes"/>
      <point x="287" y="0"/>
      <point x="333" y="29"/>
      <point x="333" y="86" type="curve" smooth="yes"/>
      <point x="333" y="571" type="line" smooth="yes"/>
      <point x="333" y="776"/>
      <point x="469" y="879"/>
      <point x="624" y="879" type="curve" smooth="yes"/>
      <point x="753" y="879"/>
      <point x="840" y="806"/>
      <point x="840" y="642" type="curve" smooth="yes"/>
      <point x="840" y="86" type="line" smooth="yes"/>
      <point x="840" y="29"/>
      <point x="884" y="0"/>
      <point x="929" y="0" type="curve" smooth="yes"/>
      <point x="975" y="0"/>
      <point x="1020" y="29"/>
      <point x="1020" y="86" type="curve" smooth="yes"/>
      <point x="1020" y="632" type="line" smooth="yes"/>
      <point x="1020" y="905"/>
      <point x="853" y="1013"/>
      <point x="663" y="1013" type="curve" smooth="yes"/>
      <point x="520" y="1013"/>
      <point x="388" y="950"/>
      <point x="333" y="838" type="curve"/>
      <point x="333" y="1345" type="line" smooth="yes"/>
      <point x="333" y="1401"/>
      <point x="289" y="1428"/>
      <point x="243" y="1428" type="curve" smooth="yes"/>
      <point x="198" y="1428"/>
      <point x="152" y="1400"/>
      <point x="152" y="1345" type="curve" smooth="yes"/>
      <point x="152" y="86" type="line" smooth="yes"/>
      <point x="152" y="29"/>
      <point x="196" y="0"/>
    </contour>
  </outline>
</glyph>
<glyph name="registered" format="1">
  <advance width="1668"/>
  <unicode hex="00AE"/>
  <outline>
    <contour>
      <point x="839" y="87" type="curve" smooth="yes"/>
      <point x="1227" y="87"/>
      <point x="1545" y="392"/>
      <point x="1545" y="761" type="curve" smooth="yes"/>
      <point x="1545" y="1133"/>
      <point x="1227" y="1438"/>
      <point x="839" y="1438" type="curve" smooth="yes"/>
      <point x="449" y="1438"/>
      <point x="130" y="1133"/>
      <point x="130" y="761" type="curve" smooth="yes"/>
      <point x="130" y="392"/>
      <point x="449" y="87"/>
    </contour>
    <contour>
      <point x="839" y="202" type="curve" smooth="yes"/>
      <point x="504" y="202"/>
      <point x="260" y="438"/>
      <point x="260" y="761" type="curve" smooth="yes"/>
      <point x="260" y="1082"/>
      <point x="504" y="1318"/>
      <point x="839" y="1318" type="curve" smooth="yes"/>
      <point x="1172" y="1318"/>
      <point x="1415" y="1082"/>
      <point x="1415" y="761" type="curve" smooth="yes"/>
      <point x="1415" y="438"/>
      <point x="1172" y="202"/>
    </contour>
    <contour>
      <point x="700" y="826" type="line"/>
      <point x="700" y="1040" type="line"/>
      <point x="892" y="1040" type="line" smooth="yes"/>
      <point x="984" y="1040"/>
      <point x="1062" y="1025"/>
      <point x="1062" y="939" type="curve" smooth="yes"/>
      <point x="1062" y="831"/>
      <point x="980" y="826"/>
      <point x="891" y="826" type="curve" smooth="yes"/>
    </contour>
    <contour>
      <point x="639" y="388" type="curve" smooth="yes"/>
      <point x="670" y="388"/>
      <point x="700" y="407"/>
      <point x="700" y="444" type="curve" smooth="yes"/>
      <point x="700" y="728" type="line"/>
      <point x="843" y="728" type="line"/>
      <point x="1044" y="413" type="line" smooth="yes"/>
      <point x="1055" y="395"/>
      <point x="1072" y="387"/>
      <point x="1088" y="387" type="curve" smooth="yes"/>
      <point x="1118" y="387"/>
      <point x="1148" y="414"/>
      <point x="1148" y="444" type="curve" smooth="yes"/>
      <point x="1148" y="453"/>
      <point x="1146" y="461"/>
      <point x="1140" y="470" type="curve" smooth="yes"/>
      <point x="960" y="729" type="line"/>
      <point x="1090" y="743"/>
      <point x="1188" y="788"/>
      <point x="1188" y="934" type="curve" smooth="yes"/>
      <point x="1188" y="1072"/>
      <point x="1116" y="1141"/>
      <point x="909" y="1141" type="curve" smooth="yes"/>
      <point x="657" y="1141" type="line" smooth="yes"/>
      <point x="603" y="1141"/>
      <point x="581" y="1101"/>
      <point x="581" y="1062" type="curve" smooth="yes"/>
      <point x="581" y="444" type="line" smooth="yes"/>
      <point x="581" y="406"/>
      <point x="610" y="388"/>
    </contour>
  </outline>
</glyph>
<glyph name="paragraph" format="1">
  <advance width="1322"/>
  <unicode hex="00B6"/>
  <outline>
    <contour>
      <point x="601" y="-253" type="curve" smooth="yes"/>
      <point x="640" y="-253"/>
      <point x="679" y="-228"/>
      <point x="679" y="-178" type="curve" smooth="yes"/>
      <point x="679" y="1298" type="line"/>
      <point x="903" y="1298" type="line"/>
      <point x="903" y="-178" type="line" smooth="yes"/>
      <point x="903" y="-228"/>
      <point x="942" y="-253"/>
      <point x="981" y="-253" type="curve" smooth="yes"/>
      <point x="1020" y="-253"/>
      <point x="1059" y="-228"/>
      <point x="1059" y="-178" type="curve" smooth="yes"/>
      <point x="1059" y="1308" type="line" smooth="yes"/>
      <point x="1059" y="1368"/>
      <point x="1051" y="1429"/>
      <point x="942" y="1429" type="curve" smooth="yes"/>
      <point x="575" y="1429" type="line" smooth="yes"/>
      <point x="289" y="1429"/>
      <point x="124" y="1286"/>
      <point x="124" y="1051" type="curve" smooth="yes"/>
      <point x="124" y="850"/>
      <point x="302" y="682"/>
      <point x="523" y="682" type="curve"/>
      <point x="523" y="-178" type="line" smooth="yes"/>
      <point x="523" y="-228"/>
      <point x="562" y="-253"/>
    </contour>
  </outline>
</glyph>
<glyph name="ordmasculine" format="1">
  <advance width="1106"/>
  <unicode hex="00BA"/>
  <outline>
    <contour>
      <point x="536" y="717" type="curve" smooth="yes"/>
      <point x="804" y="717"/>
      <point x="926" y="911"/>
      <point x="926" y="1113" type="curve" smooth="yes"/>
      <point x="926" y="1315"/>
      <point x="804" y="1511"/>
      <point x="536" y="1511" type="curve" smooth="yes"/>
      <point x="269" y="1511"/>
      <point x="148" y="1315"/>
      <point x="148" y="1113" type="curve" smooth="yes"/>
      <point x="148" y="911"/>
      <point x="269" y="717"/>
    </contour>
    <contour>
      <point x="536" y="818" type="curve" smooth="yes"/>
      <point x="365" y="818"/>
      <point x="296" y="977"/>
      <point x="296" y="1113" type="curve" smooth="yes"/>
      <point x="296" y="1251"/>
      <point x="365" y="1408"/>
      <point x="536" y="1408" type="curve" smooth="yes"/>
      <point x="708" y="1408"/>
      <point x="777" y="1251"/>
      <point x="777" y="1114" type="curve" smooth="yes"/>
      <point x="777" y="977"/>
      <point x="708" y="818"/>
    </contour>
  </outline>
</glyph>
<glyph name="onequarter" format="1">
  <advance width="1568"/>
  <unicode hex="00BC"/>
  <outline>
    <contour>
      <point x="949" y="265" type="line"/>
      <point x="1252" y="737" type="line"/>
      <point x="1252" y="265" type="line"/>
    </contour>
    <contour>
      <point x="521" y="-85" type="curve" smooth="yes"/>
      <point x="546" y="-85"/>
      <point x="569" y="-71"/>
      <point x="579" y="-42" type="curve" smooth="yes"/>
      <point x="1054" y="1356" type="line" smooth="yes"/>
      <point x="1057" y="1365"/>
      <point x="1059" y="1373"/>
      <point x="1059" y="1380" type="curve" smooth="yes"/>
      <point x="1059" y="1416"/>
      <point x="1028" y="1438"/>
      <point x="996" y="1438" type="curve" smooth="yes"/>
      <point x="972" y="1438"/>
      <point x="947" y="1424"/>
      <point x="937" y="1394" type="curve" smooth="yes"/>
      <point x="464" y="-3" type="line" smooth="yes"/>
      <point x="461" y="-11"/>
      <point x="460" y="-20"/>
      <point x="460" y="-27" type="curve" smooth="yes"/>
      <point x="460" y="-63"/>
      <point x="491" y="-85"/>
    </contour>
    <contour>
      <point x="396" y="575" type="curve" smooth="yes"/>
      <point x="423" y="575"/>
      <point x="451" y="592"/>
      <point x="451" y="627" type="curve" smooth="yes"/>
      <point x="451" y="1332" type="line" smooth="yes"/>
      <point x="451" y="1371"/>
      <point x="426" y="1389"/>
      <point x="400" y="1389" type="curve" smooth="yes"/>
      <point x="389" y="1389"/>
      <point x="379" y="1386"/>
      <point x="370" y="1380" type="curve" smooth="yes"/>
      <point x="169" y="1254" type="line" smooth="yes"/>
      <point x="155" y="1246"/>
      <point x="149" y="1234"/>
      <point x="149" y="1220" type="curve" smooth="yes"/>
      <point x="149" y="1199"/>
      <point x="167" y="1177"/>
      <point x="192" y="1177" type="curve" smooth="yes"/>
      <point x="200" y="1177"/>
      <point x="207" y="1180"/>
      <point x="215" y="1185" type="curve" smooth="yes"/>
      <point x="342" y="1266" type="line"/>
      <point x="342" y="627" type="line" smooth="yes"/>
      <point x="342" y="592"/>
      <point x="369" y="575"/>
    </contour>
    <contour>
      <point x="1304" y="1" type="curve" smooth="yes"/>
      <point x="1330" y="1"/>
      <point x="1357" y="19"/>
      <point x="1357" y="54" type="curve" smooth="yes"/>
      <point x="1357" y="188" type="line"/>
      <point x="1444" y="188" type="line" smooth="yes"/>
      <point x="1473" y="188"/>
      <point x="1486" y="207"/>
      <point x="1486" y="227" type="curve" smooth="yes"/>
      <point x="1486" y="247"/>
      <point x="1472" y="266"/>
      <point x="1444" y="266" type="curve" smooth="yes"/>
      <point x="1357" y="266" type="line"/>
      <point x="1357" y="756" type="line" smooth="yes"/>
      <point x="1357" y="813"/>
      <point x="1324" y="839"/>
      <point x="1281" y="839" type="curve" smooth="yes"/>
      <point x="1245" y="839"/>
      <point x="1212" y="825"/>
      <point x="1187" y="781" type="curve" smooth="yes"/>
      <point x="861" y="282" type="line" smooth="yes"/>
      <point x="853" y="269"/>
      <point x="849" y="256"/>
      <point x="849" y="243" type="curve" smooth="yes"/>
      <point x="849" y="213"/>
      <point x="872" y="188"/>
      <point x="910" y="188" type="curve" smooth="yes"/>
      <point x="1252" y="188" type="line"/>
      <point x="1252" y="54" type="line" smooth="yes"/>
      <point x="1252" y="19"/>
      <point x="1278" y="1"/>
    </contour>
  </outline>
</glyph>
<glyph name="onehalf" format="1">
  <advance width="1587"/>
  <unicode hex="00BD"/>
  <outline>
    <contour>
      <point x="518" y="-85" type="curve" smooth="yes"/>
      <point x="543" y="-85"/>
      <point x="566" y="-71"/>
      <point x="576" y="-42" type="curve" smooth="yes"/>
      <point x="1051" y="1356" type="line" smooth="yes"/>
      <point x="1054" y="1365"/>
      <point x="1055" y="1373"/>
      <point x="1055" y="1380" type="curve" smooth="yes"/>
      <point x="1055" y="1416"/>
      <point x="1025" y="1438"/>
      <point x="993" y="1438" type="curve" smooth="yes"/>
      <point x="968" y="1438"/>
      <point x="943" y="1424"/>
      <point x="934" y="1394" type="curve" smooth="yes"/>
      <point x="461" y="-3" type="line" smooth="yes"/>
      <point x="458" y="-11"/>
      <point x="457" y="-20"/>
      <point x="457" y="-27" type="curve" smooth="yes"/>
      <point x="457" y="-63"/>
      <point x="487" y="-85"/>
    </contour>
    <contour>
      <point x="396" y="575" type="curve" smooth="yes"/>
      <point x="423" y="575"/>
      <point x="451" y="592"/>
      <point x="451" y="627" type="curve" smooth="yes"/>
      <point x="451" y="1332" type="line" smooth="yes"/>
      <point x="451" y="1371"/>
      <point x="426" y="1389"/>
      <point x="400" y="1389" type="curve" smooth="yes"/>
      <point x="389" y="1389"/>
      <point x="379" y="1386"/>
      <point x="370" y="1380" type="curve" smooth="yes"/>
      <point x="169" y="1254" type="line" smooth="yes"/>
      <point x="155" y="1246"/>
      <point x="149" y="1234"/>
      <point x="149" y="1220" type="curve" smooth="yes"/>
      <point x="149" y="1199"/>
      <point x="167" y="1177"/>
      <point x="192" y="1177" type="curve" smooth="yes"/>
      <point x="200" y="1177"/>
      <point x="207" y="1180"/>
      <point x="215" y="1185" type="curve" smooth="yes"/>
      <point x="342" y="1266" type="line"/>
      <point x="342" y="627" type="line" smooth="yes"/>
      <point x="342" y="592"/>
      <point x="369" y="575"/>
    </contour>
    <contour>
      <point x="993" y="0" type="curve" smooth="yes"/>
      <point x="1427" y="0" type="line" smooth="yes"/>
      <point x="1458" y="0"/>
      <point x="1473" y="23"/>
      <point x="1473" y="46" type="curve" smooth="yes"/>
      <point x="1473" y="69"/>
      <point x="1457" y="93"/>
      <point x="1427" y="93" type="curve" smooth="yes"/>
      <point x="1056" y="93" type="line"/>
      <point x="1210" y="226"/>
      <point x="1464" y="453"/>
      <point x="1464" y="634" type="curve" smooth="yes"/>
      <point x="1464" y="768"/>
      <point x="1347" y="837"/>
      <point x="1209" y="837" type="curve" smooth="yes"/>
      <point x="1114" y="837"/>
      <point x="965" y="780"/>
      <point x="965" y="725" type="curve" smooth="yes"/>
      <point x="965" y="704"/>
      <point x="982" y="686"/>
      <point x="1007" y="686" type="curve" smooth="yes"/>
      <point x="1018" y="686"/>
      <point x="1029" y="688"/>
      <point x="1039" y="695" type="curve" smooth="yes"/>
      <point x="1079" y="717"/>
      <point x="1139" y="743"/>
      <point x="1199" y="743" type="curve" smooth="yes"/>
      <point x="1274" y="743"/>
      <point x="1346" y="703"/>
      <point x="1346" y="625" type="curve" smooth="yes"/>
      <point x="1346" y="500"/>
      <point x="1123" y="287"/>
      <point x="1007" y="177" type="curve" smooth="yes"/>
      <point x="958" y="127"/>
      <point x="919" y="94"/>
      <point x="919" y="56" type="curve" smooth="yes"/>
      <point x="919" y="25"/>
      <point x="941" y="0"/>
    </contour>
  </outline>
</glyph>
<glyph name="oslash" format="1">
  <advance width="1161"/>
  <unicode hex="00F8"/>
  <outline>
    <contour>
      <point x="570" y="991" type="move" name="top"/>
    </contour>
    <contour>
      <point x="144" y="-15" type="curve" smooth="yes"/>
      <point x="144" y="-42"/>
      <point x="165" y="-65"/>
      <point x="196" y="-65" type="curve" smooth="yes"/>
      <point x="211" y="-65"/>
      <point x="226" y="-59"/>
      <point x="238" y="-43" type="curve" smooth="yes"/>
      <point x="312.167" y="52.4246" type="line"/>
      <point x="387.015" y="7.42579"/>
      <point x="478.735" y="-18"/>
      <point x="585" y="-18" type="curve" smooth="yes"/>
      <point x="900" y="-18"/>
      <point x="1086" y="204"/>
      <point x="1086" y="497" type="curve" smooth="yes"/>
      <point x="1086" y="647.918"/>
      <point x="1037.2" y="778.695"/>
      <point x="948.256" y="870.833" type="curve"/>
      <point x="1023" y="967" type="line" smooth="yes"/>
      <point x="1032" y="979"/>
      <point x="1041" y="989"/>
      <point x="1041" y="1006" type="curve" smooth="yes"/>
      <point x="1041" y="1034"/>
      <point x="1015" y="1057"/>
      <point x="984" y="1057" type="curve" smooth="yes"/>
      <point x="969" y="1057"/>
      <point x="954" y="1051"/>
      <point x="942" y="1036" type="curve" smooth="yes"/>
      <point x="865.979" y="937.678" type="line"/>
      <point x="789.496" y="985.84"/>
      <point x="694.875" y="1013"/>
      <point x="585" y="1013" type="curve" smooth="yes"/>
      <point x="272" y="1013"/>
      <point x="84" y="792"/>
      <point x="84" y="497" type="curve" smooth="yes"/>
      <point x="84" y="342.928"/>
      <point x="135.707" y="208.489"/>
      <point x="230.398" y="115.637" type="curve"/>
      <point x="158" y="22" type="line" smooth="yes"/>
      <point x="150" y="12"/>
      <point x="144" y="1"/>
    </contour>
    <contour>
      <point x="585" y="106" type="curve" smooth="yes"/>
      <point x="511.111" y="105.634"/>
      <point x="448.328" y="125.873"/>
      <point x="398.412" y="163.39" type="curve"/>
      <point x="848.77" y="742.831" type="line"/>
      <point x="886.103" y="678.245"/>
      <point x="906" y="594.728"/>
      <point x="906" y="497" type="curve" smooth="yes"/>
      <point x="906" y="258"/>
      <point x="791" y="106"/>
    </contour>
    <contour>
      <point x="779.266" y="825.525" type="curve"/>
      <point x="327.505" y="241.232" type="line"/>
      <point x="286.131" y="306.859"/>
      <point x="264" y="393.933"/>
      <point x="264" y="497" type="curve" smooth="yes"/>
      <point x="264" y="738"/>
      <point x="383" y="890"/>
      <point x="585" y="890" type="curve" smooth="yes"/>
      <point x="662.728" y="890"/>
      <point x="728.167" y="867.198"/>
    </contour>
  </outline>
</glyph>
<glyph name="Eng" format="1">
  <advance width="1512"/>
  <unicode hex="014A"/>
  <outline>
    <contour>
      <point x="636" y="-411" type="curve" smooth="yes"/>
      <point x="752" y="-437"/>
      <point x="855" y="-453"/>
      <point x="944" y="-453" type="curve" smooth="yes"/>
      <point x="1199" y="-453"/>
      <point x="1341" y="-326"/>
      <point x="1341" y="49" type="curve" smooth="yes"/>
      <point x="1341" y="1340" type="line" smooth="yes"/>
      <point x="1341" y="1399"/>
      <point x="1294" y="1429"/>
      <point x="1248" y="1429" type="curve" smooth="yes"/>
      <point x="1200" y="1429"/>
      <point x="1155" y="1399"/>
      <point x="1155" y="1340" type="curve" smooth="yes"/>
      <point x="1155" y="290" type="line"/>
      <point x="427" y="1350" type="line" smooth="yes"/>
      <point x="389" y="1405"/>
      <point x="333" y="1429"/>
      <point x="290" y="1429" type="curve" smooth="yes"/>
      <point x="227" y="1429"/>
      <point x="176" y="1382"/>
      <point x="176" y="1300" type="curve" smooth="yes"/>
      <point x="176" y="89" type="line" smooth="yes"/>
      <point x="176" y="29"/>
      <point x="222" y="0"/>
      <point x="269" y="0" type="curve" smooth="yes"/>
      <point x="316" y="0"/>
      <point x="363" y="30"/>
      <point x="363" y="89" type="curve" smooth="yes"/>
      <point x="363" y="1126" type="line"/>
      <point x="1155" y="-7" type="line"/>
      <point x="1155" y="-216"/>
      <point x="1101" y="-308"/>
      <point x="932" y="-308" type="curve" smooth="yes"/>
      <point x="863" y="-308"/>
      <point x="775" y="-293"/>
      <point x="664" y="-264" type="curve" smooth="yes"/>
      <point x="655" y="-262"/>
      <point x="645" y="-260"/>
      <point x="637" y="-260" type="curve" smooth="yes"/>
      <point x="589" y="-260"/>
      <point x="558" y="-297"/>
      <point x="558" y="-334" type="curve" smooth="yes"/>
      <point x="558" y="-366"/>
      <point x="581" y="-399"/>
    </contour>
  </outline>
</glyph>
<glyph name="eng" format="1">
  <advance width="1168"/>
  <unicode hex="014B"/>
  <outline>
    <contour>
      <point x="399" y="-290" type="curve" smooth="yes"/>
      <point x="498" y="-321"/>
      <point x="588" y="-338"/>
      <point x="667" y="-338" type="curve" smooth="yes"/>
      <point x="885" y="-338"/>
      <point x="1020" y="-212"/>
      <point x="1020" y="80" type="curve" smooth="yes"/>
      <point x="1020" y="626" type="line" smooth="yes"/>
      <point x="1020" y="898"/>
      <point x="867" y="1013"/>
      <point x="659" y="1013" type="curve" smooth="yes"/>
      <point x="509" y="1013"/>
      <point x="384" y="947"/>
      <point x="333" y="824" type="curve"/>
      <point x="333" y="911" type="line" smooth="yes"/>
      <point x="333" y="966"/>
      <point x="288" y="993"/>
      <point x="243" y="993" type="curve" smooth="yes"/>
      <point x="198" y="993"/>
      <point x="152" y="965"/>
      <point x="152" y="908" type="curve" smooth="yes"/>
      <point x="152" y="86" type="line" smooth="yes"/>
      <point x="152" y="28"/>
      <point x="196" y="0"/>
      <point x="241" y="0" type="curve" smooth="yes"/>
      <point x="287" y="0"/>
      <point x="333" y="29"/>
      <point x="333" y="86" type="curve" smooth="yes"/>
      <point x="333" y="585" type="line"/>
      <point x="342" y="779"/>
      <point x="464" y="890"/>
      <point x="613" y="890" type="curve" smooth="yes"/>
      <point x="756" y="890"/>
      <point x="840" y="800"/>
      <point x="840" y="628" type="curve" smooth="yes"/>
      <point x="840" y="80" type="line" smooth="yes"/>
      <point x="840" y="-116"/>
      <point x="784" y="-199"/>
      <point x="649" y="-199" type="curve" smooth="yes"/>
      <point x="591" y="-199"/>
      <point x="519" y="-184"/>
      <point x="430" y="-156" type="curve" smooth="yes"/>
      <point x="422" y="-154"/>
      <point x="414" y="-152"/>
      <point x="407" y="-152" type="curve" smooth="yes"/>
      <point x="368" y="-152"/>
      <point x="344" y="-185"/>
      <point x="344" y="-220" type="curve" smooth="yes"/>
      <point x="344" y="-248"/>
      <point x="360" y="-278"/>
    </contour>
  </outline>
</glyph>
<glyph name="uni030F" format="1">
  <advance width="569"/>
  <unicode hex="030F"/>
  <outline>
    <contour>
      <point x="488" y="1048" type="move" name="_top"/>
    </contour>
    <contour>
      <point x="627" y="1156" type="curve" smooth="yes"/>
      <point x="652" y="1156"/>
      <point x="668" y="1174"/>
      <point x="669" y="1196" type="curve" smooth="yes"/>
      <point x="668" y="1209"/>
      <point x="664" y="1220"/>
      <point x="654" y="1232" type="curve" smooth="yes"/>
      <point x="396" y="1531" type="line" smooth="yes"/>
      <point x="376" y="1553"/>
      <point x="358" y="1563"/>
      <point x="336" y="1563" type="curve" smooth="yes"/>
      <point x="288" y="1563"/>
      <point x="239" y="1517"/>
      <point x="239" y="1471" type="curve" smooth="yes"/>
      <point x="239" y="1453"/>
      <point x="246" y="1435"/>
      <point x="263" y="1422" type="curve" smooth="yes"/>
      <point x="579" y="1176" type="line" smooth="yes"/>
      <point x="596" y="1162"/>
      <point x="613" y="1156"/>
    </contour>
    <contour>
      <point x="295" y="1156" type="curve" smooth="yes"/>
      <point x="320" y="1156"/>
      <point x="337" y="1175"/>
      <point x="337" y="1197" type="curve" smooth="yes"/>
      <point x="336" y="1209"/>
      <point x="333" y="1220"/>
      <point x="323" y="1232" type="curve" smooth="yes"/>
      <point x="63" y="1531" type="line" smooth="yes"/>
      <point x="44" y="1553"/>
      <point x="27" y="1563"/>
      <point x="4" y="1563" type="curve" smooth="yes"/>
      <point x="-43" y="1563"/>
      <point x="-93" y="1518"/>
      <point x="-93" y="1470" type="curve" smooth="yes"/>
      <point x="-93" y="1453"/>
      <point x="-86" y="1435"/>
      <point x="-69" y="1422" type="curve" smooth="yes"/>
      <point x="249" y="1174" type="line" smooth="yes"/>
      <point x="265" y="1161"/>
      <point x="282" y="1156"/>
    </contour>
  </outline>
</glyph>
<glyph name="uni0311" format="1">
  <advance width="569"/>
  <unicode hex="0311"/>
  <outline>
    <contour>
      <point x="286" y="1040" type="move" name="_top"/>
    </contour>
    <contour>
      <point x="56" y="1263" type="curve" smooth="yes"/>
      <point x="75" y="1263"/>
      <point x="92" y="1272"/>
      <point x="106" y="1291" type="curve" smooth="yes"/>
      <point x="150" y="1354"/>
      <point x="194" y="1377"/>
      <point x="285" y="1377" type="curve" smooth="yes"/>
      <point x="376" y="1377"/>
      <point x="418" y="1354"/>
      <point x="464" y="1291" type="curve" smooth="yes"/>
      <point x="478" y="1272"/>
      <point x="495" y="1263"/>
      <point x="514" y="1263" type="curve" smooth="yes"/>
      <point x="542" y="1263"/>
      <point x="566" y="1281"/>
      <point x="566" y="1309" type="curve" smooth="yes"/>
      <point x="566" y="1317"/>
      <point x="564" y="1326"/>
      <point x="560" y="1335" type="curve" smooth="yes"/>
      <point x="515" y="1435"/>
      <point x="417" y="1494"/>
      <point x="285" y="1494" type="curve" smooth="yes"/>
      <point x="153" y="1494"/>
      <point x="55" y="1435"/>
      <point x="10" y="1335" type="curve" smooth="yes"/>
      <point x="6" y="1326"/>
      <point x="4" y="1317"/>
      <point x="4" y="1309" type="curve" smooth="yes"/>
      <point x="4" y="1281"/>
      <point x="28" y="1263"/>
    </contour>
  </outline>
</glyph>
<glyph name="uni0326" format="1">
  <advance width="593"/>
  <unicode hex="0326"/>
  <outline>
    <contour>
      <point x="316" y="0" type="move" name="_bot"/>
    </contour>
    <contour>
      <point x="155" y="-606" type="curve" smooth="yes"/>
      <point x="198" y="-606" type="line" smooth="yes"/>
      <point x="225" y="-606"/>
      <point x="240" y="-594"/>
      <point x="251" y="-563" type="curve" smooth="yes"/>
      <point x="389" y="-160" type="line" smooth="yes"/>
      <point x="390" y="-156"/>
      <point x="392" y="-149"/>
      <point x="392" y="-142" type="curve" smooth="yes"/>
      <point x="392" y="-126"/>
      <point x="384" y="-106"/>
      <point x="355" y="-104" type="curve" smooth="yes"/>
      <point x="271" y="-104" type="line" smooth="yes"/>
      <point x="239" y="-105"/>
      <point x="206" y="-113"/>
      <point x="198" y="-160" type="curve" smooth="yes"/>
      <point x="131" y="-563" type="line" smooth="yes"/>
      <point x="130" y="-566"/>
      <point x="130" y="-570"/>
      <point x="130" y="-575" type="curve" smooth="yes"/>
      <point x="130" y="-588"/>
      <point x="134" y="-605"/>
    </contour>
  </outline>
</glyph>
<glyph name="uni03BC" format="1">
  <advance width="1163"/>
  <unicode hex="03BC"/>
  <outline>
    <component base="u"/>
    <contour>
      <point x="230" y="-274" type="curve" smooth="yes"/>
      <point x="281" y="-274"/>
      <point x="323" y="-237"/>
      <point x="323" y="-175" type="curve" smooth="yes"/>
      <point x="323" y="501" type="line"/>
      <point x="141" y="501" type="line"/>
      <point x="141" y="-175" type="line" smooth="yes"/>
      <point x="141" y="-243"/>
      <point x="181" y="-274"/>
    </contour>
  </outline>
</glyph>
<glyph name="pi" format="1">
  <advance width="1222"/>
  <unicode hex="03C0"/>
  <outline>
    <contour>
      <point x="961" y="-20" type="curve" smooth="yes"/>
      <point x="1023" y="-10"/>
      <point x="1042" y="10"/>
      <point x="1042" y="45" type="curve" smooth="yes"/>
      <point x="1042" y="104"/>
      <point x="989" y="205"/>
      <point x="989" y="375" type="curve" smooth="yes"/>
      <point x="989" y="922" type="line"/>
      <point x="1070" y="922" type="line" smooth="yes"/>
      <point x="1120" y="922"/>
      <point x="1144" y="958"/>
      <point x="1144" y="996" type="curve" smooth="yes"/>
      <point x="1144" y="1032"/>
      <point x="1120" y="1069"/>
      <point x="1070" y="1069" type="curve" smooth="yes"/>
      <point x="211" y="1069" type="line" smooth="yes"/>
      <point x="150" y="1069"/>
      <point x="120" y="1032"/>
      <point x="120" y="996" type="curve" smooth="yes"/>
      <point x="120" y="958"/>
      <point x="150" y="922"/>
      <point x="211" y="922" type="curve" smooth="yes"/>
      <point x="286" y="922" type="line"/>
      <point x="286" y="603"/>
      <point x="206" y="299"/>
      <point x="129" y="85" type="curve" smooth="yes"/>
      <point x="124" y="71"/>
      <point x="122" y="58"/>
      <point x="122" y="47" type="curve" smooth="yes"/>
      <point x="122" y="-1"/>
      <point x="162" y="-28"/>
      <point x="207" y="-28" type="curve" smooth="yes"/>
      <point x="247" y="-28"/>
      <point x="292" y="-6"/>
      <point x="313" y="46" type="curve" smooth="yes"/>
      <point x="388" y="233"/>
      <point x="445" y="654"/>
      <point x="456" y="922" type="curve"/>
      <point x="813" y="922" type="line"/>
      <point x="813" y="340" type="line" smooth="yes"/>
      <point x="813" y="88"/>
      <point x="834" y="-23"/>
      <point x="933" y="-23" type="curve" smooth="yes"/>
      <point x="942" y="-23"/>
      <point x="951" y="-22"/>
    </contour>
  </outline>
</glyph>
<glyph name="quotedblright" format="1">
  <advance width="1150"/>
  <unicode hex="201D"/>
  <outline>
    <contour>
      <point x="649" y="963" type="curve" smooth="yes"/>
      <point x="703" y="963" type="line" smooth="yes"/>
      <point x="732" y="963"/>
      <point x="746" y="974"/>
      <point x="759" y="1006" type="curve" smooth="yes"/>
      <point x="906" y="1373" type="line" smooth="yes"/>
      <point x="908" y="1377"/>
      <point x="909" y="1384"/>
      <point x="909" y="1391" type="curve" smooth="yes"/>
      <point x="909" y="1408"/>
      <point x="901" y="1429"/>
      <point x="872" y="1429" type="curve" smooth="yes"/>
      <point x="764" y="1429" type="line" smooth="yes"/>
      <point x="732" y="1428"/>
      <point x="699" y="1420"/>
      <point x="691" y="1373" type="curve" smooth="yes"/>
      <point x="625" y="1006" type="line" smooth="yes"/>
      <point x="624" y="1003"/>
      <point x="624" y="999"/>
      <point x="624" y="994" type="curve" smooth="yes"/>
      <point x="624" y="981"/>
      <point x="628" y="964"/>
    </contour>
    <contour>
      <point x="264" y="963" type="curve" smooth="yes"/>
      <point x="318" y="963" type="line" smooth="yes"/>
      <point x="347" y="963"/>
      <point x="361" y="974"/>
      <point x="374" y="1006" type="curve" smooth="yes"/>
      <point x="522" y="1373" type="line" smooth="yes"/>
      <point x="523" y="1377"/>
      <point x="525" y="1384"/>
      <point x="525" y="1391" type="curve" smooth="yes"/>
      <point x="525" y="1408"/>
      <point x="517" y="1429"/>
      <point x="488" y="1429" type="curve" smooth="yes"/>
      <point x="379" y="1429" type="line" smooth="yes"/>
      <point x="347" y="1428"/>
      <point x="314" y="1420"/>
      <point x="306" y="1373" type="curve" smooth="yes"/>
      <point x="240" y="1006" type="line" smooth="yes"/>
      <point x="239" y="1003"/>
      <point x="239" y="999"/>
      <point x="239" y="994" type="curve" smooth="yes"/>
      <point x="239" y="981"/>
      <point x="243" y="964"/>
    </contour>
  </outline>
</glyph>
<glyph name="quotedblbase" format="1">
  <advance width="1150"/>
  <unicode hex="201E"/>
  <outline>
    <contour>
      <point x="673" y="-244" type="curve" smooth="yes"/>
      <point x="729" y="-244" type="line" smooth="yes"/>
      <point x="756" y="-244"/>
      <point x="769" y="-232"/>
      <point x="782" y="-201" type="curve" smooth="yes"/>
      <point x="930" y="166" type="line" smooth="yes"/>
      <point x="931" y="170"/>
      <point x="933" y="177"/>
      <point x="933" y="184" type="curve" smooth="yes"/>
      <point x="933" y="200"/>
      <point x="925" y="220"/>
      <point x="896" y="222" type="curve" smooth="yes"/>
      <point x="787" y="222" type="line" smooth="yes"/>
      <point x="755" y="221"/>
      <point x="722" y="213"/>
      <point x="714" y="166" type="curve" smooth="yes"/>
      <point x="649" y="-201" type="line" smooth="yes"/>
      <point x="648" y="-204"/>
      <point x="648" y="-208"/>
      <point x="648" y="-213" type="curve" smooth="yes"/>
      <point x="648" y="-226"/>
      <point x="652" y="-243"/>
    </contour>
    <contour>
      <point x="270" y="-244" type="curve" smooth="yes"/>
      <point x="326" y="-244" type="line" smooth="yes"/>
      <point x="353" y="-244"/>
      <point x="366" y="-232"/>
      <point x="379" y="-201" type="curve" smooth="yes"/>
      <point x="527" y="166" type="line" smooth="yes"/>
      <point x="528" y="170"/>
      <point x="530" y="177"/>
      <point x="530" y="184" type="curve" smooth="yes"/>
      <point x="530" y="200"/>
      <point x="522" y="220"/>
      <point x="493" y="222" type="curve" smooth="yes"/>
      <point x="384" y="222" type="line" smooth="yes"/>
      <point x="352" y="221"/>
      <point x="319" y="213"/>
      <point x="311" y="166" type="curve" smooth="yes"/>
      <point x="246" y="-201" type="line" smooth="yes"/>
      <point x="245" y="-204"/>
      <point x="245" y="-208"/>
      <point x="245" y="-213" type="curve" smooth="yes"/>
      <point x="245" y="-226"/>
      <point x="249" y="-243"/>
    </contour>
  </outline>
</glyph>
<glyph name="dagger" format="1">
  <advance width="1186"/>
  <unicode hex="2020"/>
  <outline>
    <contour>
      <point x="593" y="0" type="curve" smooth="yes"/>
      <point x="636" y="0"/>
      <point x="678" y="28"/>
      <point x="678" y="83" type="curve" smooth="yes"/>
      <point x="678" y="973" type="line"/>
      <point x="954" y="973" type="line" smooth="yes"/>
      <point x="1001" y="973"/>
      <point x="1025" y="1010"/>
      <point x="1025" y="1048" type="curve" smooth="yes"/>
      <point x="1025" y="1084"/>
      <point x="1001" y="1121"/>
      <point x="954" y="1121" type="curve" smooth="yes"/>
      <point x="678" y="1121" type="line"/>
      <point x="678" y="1394" type="line" smooth="yes"/>
      <point x="678" y="1449"/>
      <point x="636" y="1478"/>
      <point x="593" y="1478" type="curve" smooth="yes"/>
      <point x="550" y="1478"/>
      <point x="508" y="1451"/>
      <point x="508" y="1394" type="curve" smooth="yes"/>
      <point x="508" y="1121" type="line"/>
      <point x="227" y="1121" type="line" smooth="yes"/>
      <point x="182" y="1121"/>
      <point x="159" y="1084"/>
      <point x="159" y="1046" type="curve" smooth="yes"/>
      <point x="159" y="1009"/>
      <point x="182" y="973"/>
      <point x="227" y="973" type="curve" smooth="yes"/>
      <point x="508" y="973" type="line"/>
      <point x="508" y="83" type="line" smooth="yes"/>
      <point x="508" y="28"/>
      <point x="550" y="0"/>
    </contour>
  </outline>
</glyph>
<glyph name="uni2074" format="1">
  <advance width="731"/>
  <unicode hex="2074"/>
  <outline>
    <contour>
      <point x="134" y="837" type="line"/>
      <point x="437" y="1309" type="line"/>
      <point x="437" y="837" type="line"/>
    </contour>
    <contour>
      <point x="490" y="573" type="curve" smooth="yes"/>
      <point x="516" y="573"/>
      <point x="542" y="591"/>
      <point x="542" y="626" type="curve" smooth="yes"/>
      <point x="542" y="760" type="line"/>
      <point x="630" y="760" type="line" smooth="yes"/>
      <point x="659" y="760"/>
      <point x="672" y="779"/>
      <point x="672" y="799" type="curve" smooth="yes"/>
      <point x="672" y="819"/>
      <point x="657" y="837"/>
      <point x="630" y="837" type="curve" smooth="yes"/>
      <point x="542" y="837" type="line"/>
      <point x="542" y="1328" type="line" smooth="yes"/>
      <point x="542" y="1385"/>
      <point x="509" y="1411"/>
      <point x="467" y="1411" type="curve" smooth="yes"/>
      <point x="429" y="1411"/>
      <point x="398" y="1396"/>
      <point x="373" y="1353" type="curve" smooth="yes"/>
      <point x="47" y="854" type="line" smooth="yes"/>
      <point x="39" y="841"/>
      <point x="35" y="829"/>
      <point x="35" y="815" type="curve" smooth="yes"/>
      <point x="35" y="785"/>
      <point x="58" y="760"/>
      <point x="96" y="760" type="curve" smooth="yes"/>
      <point x="437" y="760" type="line"/>
      <point x="437" y="626" type="line" smooth="yes"/>
      <point x="437" y="591"/>
      <point x="463" y="573"/>
    </contour>
  </outline>
</glyph>
<glyph name="emptyset" format="1">
  <advance width="1745"/>
  <unicode hex="2205"/>
  <outline>
    <contour>
      <point x="367" y="75" type="curve" smooth="yes"/>
      <point x="367" y="46"/>
      <point x="392" y="12"/>
      <point x="426" y="12" type="curve" smooth="yes"/>
      <point x="456" y="12"/>
      <point x="480" y="46"/>
      <point x="502" y="75" type="curve" smooth="yes"/>
      <point x="583" y="181" type="line"/>
      <point x="671" y="136"/>
      <point x="770" y="110"/>
      <point x="874" y="110" type="curve" smooth="yes"/>
      <point x="1206" y="110"/>
      <point x="1478" y="370"/>
      <point x="1478" y="687" type="curve" smooth="yes"/>
      <point x="1478" y="857"/>
      <point x="1404" y="1005"/>
      <point x="1289" y="1109" type="curve"/>
      <point x="1373" y="1220" type="line" smooth="yes"/>
      <point x="1389" y="1244"/>
      <point x="1412" y="1270"/>
      <point x="1412" y="1297" type="curve" smooth="yes"/>
      <point x="1412" y="1327"/>
      <point x="1388" y="1356"/>
      <point x="1356" y="1356" type="curve" smooth="yes"/>
      <point x="1337" y="1356"/>
      <point x="1320" y="1348"/>
      <point x="1304" y="1327" type="curve" smooth="yes"/>
      <point x="1193" y="1180" type="line"/>
      <point x="1099" y="1237"/>
      <point x="988" y="1269"/>
      <point x="874" y="1269" type="curve" smooth="yes"/>
      <point x="526" y="1269"/>
      <point x="267" y="995"/>
      <point x="267" y="687" type="curve" smooth="yes"/>
      <point x="267" y="506"/>
      <point x="352" y="349"/>
      <point x="483" y="245" type="curve"/>
      <point x="407" y="145" type="line" smooth="yes"/>
      <point x="390" y="124"/>
      <point x="367" y="95"/>
    </contour>
    <contour>
      <point x="550" y="333" type="line"/>
      <point x="452" y="419"/>
      <point x="393" y="546"/>
      <point x="393" y="687" type="curve" smooth="yes"/>
      <point x="393" y="956"/>
      <point x="602" y="1159"/>
      <point x="874" y="1159" type="curve" smooth="yes"/>
      <point x="968" y="1159"/>
      <point x="1054" y="1134"/>
      <point x="1126" y="1092" type="curve"/>
    </contour>
    <contour>
      <point x="648" y="267" type="curve"/>
      <point x="1220" y="1019" type="line"/>
      <point x="1304" y="934"/>
      <point x="1353" y="816"/>
      <point x="1353" y="687" type="curve" smooth="yes"/>
      <point x="1353" y="410"/>
      <point x="1134" y="215"/>
      <point x="874" y="215" type="curve" smooth="yes"/>
      <point x="791" y="215"/>
      <point x="714" y="234"/>
    </contour>
  </outline>
</glyph>
<glyph name="radical" format="1">
  <advance width="1310"/>
  <unicode hex="221A"/>
  <outline>
    <contour>
      <point x="218" y="557" type="curve" smooth="yes"/>
      <point x="162" y="557"/>
      <point x="113" y="512"/>
      <point x="113" y="461" type="curve" smooth="yes"/>
      <point x="113" y="445"/>
      <point x="117" y="433"/>
      <point x="124" y="421" type="curve" smooth="yes"/>
      <point x="341" y="18" type="line"/>
      <point x="386" y="-79"/>
      <point x="431" y="-116"/>
      <point x="507" y="-116" type="curve" smooth="yes"/>
      <point x="587" y="-116"/>
      <point x="643" y="-81"/>
      <point x="676" y="15" type="curve" smooth="yes"/>
      <point x="1201" y="1438" type="line" smooth="yes"/>
      <point x="1205" y="1450"/>
      <point x="1207" y="1459"/>
      <point x="1207" y="1469" type="curve" smooth="yes"/>
      <point x="1207" y="1520"/>
      <point x="1160" y="1556"/>
      <point x="1111" y="1556" type="curve" smooth="yes"/>
      <point x="1076" y="1556"/>
      <point x="1035" y="1534"/>
      <point x="1017" y="1487" type="curve" smooth="yes"/>
      <point x="508" y="110" type="line"/>
      <point x="505" y="110" type="line"/>
      <point x="303" y="504" type="line" smooth="yes"/>
      <point x="284" y="540"/>
      <point x="252" y="557"/>
    </contour>
  </outline>
</glyph>
